<svg xmlns="http://www.w3.org/2000/svg" width="128" height="128" viewBox="0 0 128 128" data-type="icon" data-style="cozy-farm">
  <defs>
    <filter id="icon-carrot-wobble" x="-5%" y="-5%" width="110%" height="110%"><feTurbulence type="fractalNoise" baseFrequency=".05" numOctaves="2" seed="4"/><feDisplacementMap in="SourceGraphic" scale="1.5" xChannelSelector="R" yChannelSelector="G"/></filter>
    <clipPath id="icon-carrot-clip"><path d="M44 36 C44 24 84 24 84 36 C84 60 72 96 64 118 C56 96 44 60 44 36 Z"/></clipPath>
    <linearGradient id="icon-carrot-body" x1="44" y1="0" x2="84" y2="0" gradientUnits="userSpaceOnUse">
      <stop offset="0" stop-color="#f08a5d"/><stop offset=".45" stop-color="#d0543f"/><stop offset="1" stop-color="#9b2e30"/>
    </linearGradient>
  </defs>
  <g transform="translate(8 6) scale(.88)">
  <g transform="rotate(40 64 66) translate(0 6)" filter="url(#icon-carrot-wobble)">
    <!-- fronds behind the body: full lobed leaves so they survive at 64px -->
    <g stroke="#3a2414" stroke-width="2.5" stroke-linejoin="round">
      <path d="M60 32 C46 26 34 14 34 2 C44 0 50 8 52 14 C54 6 60 2 66 4 C66 14 64 24 62 32 Z" fill="#74b44f"/>
      <path d="M68 32 C74 20 84 10 98 8 C100 16 94 22 88 24 C96 24 102 30 100 36 C88 38 76 36 68 32 Z" fill="#4a8a36"/>
      <path d="M62 32 C58 20 58 8 64 -2 C72 6 74 20 68 32 Z" fill="#a8d77a"/>
    </g>
    <g fill="none" stroke="#2f5e27" stroke-width="1.4" stroke-linecap="round"><path d="M62 30 C54 20 46 12 40 6"/><path d="M68 30 C78 24 88 18 96 14"/></g>
    <path d="M44 36 C44 24 84 24 84 36 C84 60 72 96 64 118 C56 96 44 60 44 36 Z" fill="url(#icon-carrot-body)" stroke="#3a2414" stroke-width="2.5" stroke-linejoin="round"/>
    <g clip-path="url(#icon-carrot-clip)">
      <path d="M44 30 C50 60 56 90 62 120 L40 120 L40 30 Z" fill="#f7b98f" opacity=".35"/>
      <path d="M84 30 C80 60 72 92 66 120 L90 120 L90 30 Z" fill="#5c1620" opacity=".3"/>
      <g fill="none" stroke="#9b2e30" stroke-width="2" stroke-linecap="round" opacity=".8">
        <path d="M48 48 Q56 52 62 50"/><path d="M68 62 Q76 60 80 56"/><path d="M52 76 Q58 80 63 78"/><path d="M66 92 Q71 90 74 86"/><path d="M58 104 Q62 106 65 104"/>
      </g>
      <path d="M50 36 C52 52 55 66 58 78" fill="none" stroke="#f7b98f" stroke-width="3" stroke-linecap="round" opacity=".9"/>
    </g>
  </g>
  </g>
</svg>
